# xmcd
#
# Track frame offsets:
#	150
#	9760
#	22247
#	30632
#	41942
#	50797
#	61410
#	71685
#	80797
#	91187
#	104655
#	114870
#	127120
#	142485
#
# Disc length: 2041 seconds
#
# Revision: 1
# Processed by: cddbd v1.5.1PL2 Copyright (c) Steve Scherf et al.
# Submitted via: audiograbber 1.83.01
#
DISCID=d107f70e
DTITLE=Frank Ifield - I'll Remember You
DYEAR=1963
DGENRE=
TTITLE0=Just One More Chance
TTITLE1=I've Got That Sad And Lonely Feeling
TTITLE2=The Glory Of Love
TTITLE3=Gone
TTITLE4=Lonely Teardrops
TTITLE5=San Antonio Rose
TTITLE6=Heart And Soul
TTITLE7=I'm A Fool To Care
TTITLE8=The Wisdom Of A Fool
TTITLE9=(I Heard That) Lonesome Whistle
TTITLE10=Any Time
TTITLE11=Before This Days Ands
TTITLE12=I Just Can't Lose The Blues
TTITLE13=In A Mansion Stands My Love
EXTD=
EXTT0=
EXTT1=
EXTT2=
EXTT3=
EXTT4=
EXTT5=
EXTT6=
EXTT7=
EXTT8=
EXTT9=
EXTT10=
EXTT11=
EXTT12=
EXTT13=
PLAYORDER=
